<?xml version="1.0" encoding="UTF-8"?>
<svg id="Layer_2" data-name="Layer 2" xmlns="http://www.w3.org/2000/svg" viewBox="0 0 735.84 703.27">
  <defs>
    <style>
      .cls-1 {
        fill: #fff;
      }

      .cls-2 {
        fill: #4854ed;
      }
    </style>
  </defs>
  <g id="Layer_1-2" data-name="Layer 1">
    <g>
      <path class="cls-2" d="M396.03,14l116.55,154.46c4.22,5.59,10,9.79,16.62,12.08l182.91,63.11c22.11,7.63,30.77,34.29,17.37,53.46l-110.88,158.57c-4.01,5.74-6.22,12.54-6.35,19.54l-3.5,193.46c-.42,23.38-23.11,39.86-45.47,33.04l-185.07-56.45c-6.7-2.04-13.85-2.04-20.54,0l-185.07,56.45c-22.37,6.82-45.05-9.66-45.47-33.04l-3.5-193.46c-.13-7-2.34-13.8-6.35-19.54L6.37,297.1c-13.4-19.17-4.74-45.83,17.37-53.46l182.91-63.11c6.62-2.28,12.4-6.49,16.62-12.08L339.82,14c14.09-18.67,42.12-18.67,56.21,0Z"/>
      <path class="cls-1" d="M181.98,293.97v-54.87c0-.81.66-1.47,1.47-1.47h97.06c.81,0,1.47.66,1.47,1.47v54.87c0,.81-.66,1.47-1.47,1.47h-20.5c-.81,0-1.47.66-1.47,1.47v70.5c0,.81.66,1.47,1.47,1.47h18.93c.81,0,1.47.66,1.47,1.47v53.31c0,.81-.66,1.47-1.47,1.47h-18.93c-.81,0-1.47.66-1.47,1.47v70.47c0,.82.67,1.5,1.5,1.48,5.11-.13,10.23-.96,15.34-2.5.95-.29,1.91.4,1.91,1.4v16.92c0,1.71,2.42,2.05,2.89.41,6.4-22.56,9.61-57.12,9.61-103.71v-171.97c0-.81.66-1.47,1.47-1.47h231.43c.81,0,1.47.66,1.47,1.47v295.4c0,5.22,1.56,7.81,4.69,7.81s4.68-2.57,4.69-7.75c0-.04,0-.08,0-.12,2-19.08,3.05-39.64,3.12-61.66,0-1.08,1.12-1.79,2.09-1.32,5.76,2.79,13.05,5.96,21.89,9.5.6.24.98.86.93,1.5-2.03,24.43-3.03,43.33-3.03,56.65,0,.04,0,.09,0,.13-3.14,36.41-17.2,54.09-42.18,53.06-27.1,0-40.62-19.8-40.62-59.38v-242.28c0-.81-.66-1.47-1.47-1.47h-134.56c-.81,0-1.47.66-1.47,1.47v123.53c2.04,82-9.01,142.28-33.17,180.92-.56.9-1.87.9-2.46.02-9.87-14.66-20.2-28.41-30.99-41.21-.35-.42-.89-.6-1.43-.48-9.37,2.07-23.14,5.14-41.33,9.19-16.89,3.95-30.45,6.98-40.69,9.07-.82.17-1.61-.39-1.74-1.21l-8.92-56.48c-.12-.77.38-1.51,1.14-1.67,8.57-1.84,17.57-3.26,27.01-4.26.75-.08,1.32-.71,1.32-1.46v-80.02c0-.81-.66-1.47-1.47-1.47h-20.5c-.81,0-1.47-.66-1.47-1.47v-53.31c0-.81.66-1.47,1.47-1.47h20.5c.81,0,1.47-.66,1.47-1.47v-70.5c0-.81-.66-1.47-1.47-1.47h-22.06c-.81,0-1.47-.66-1.47-1.47ZM374.26,553.25h-26.75c-.81,0-1.47-.66-1.47-1.47v-175.18c0-.81.66-1.47,1.47-1.47h33c.81,0,1.47-.66,1.47-1.47v-17.37c0-.81-.66-1.47-1.47-1.47h-34.56c-.81,0-1.47-.66-1.47-1.47v-43.93c0-.81.66-1.47,1.47-1.47h120.5c.81,0,1.47.66,1.47,1.47v43.93c0,.81-.66,1.47-1.47,1.47h-34.56c-.81,0-1.47.66-1.47,1.47v17.37c0,.81.66,1.47,1.47,1.47h31.43c.81,0,1.47.66,1.47,1.47v136.03c1.03,25-7.81,37.5-26.56,37.5h-14.15c-.81,0-1.47.66-1.47,1.47v40.81c0,.81-.66,1.47-1.47,1.47h-31.43c-.81,0-1.47-.66-1.47-1.47v-170.5c0-.81-.66-1.47-1.47-1.47h-9.56c-.81,0-1.47.66-1.47,1.47v129.87c0,.81-.66,1.47-1.47,1.47ZM435.2,420.44h-11.12c-.81,0-1.47.66-1.47,1.47v79.87c0,.81.66,1.47,1.47,1.47h0c.06,0,.13,0,.19-.01,9.27-1.04,13.4-5.18,12.42-12.41,0-.05-.01-.11-.01-.17v-68.76c0-.81-.66-1.47-1.47-1.47Z"/>
    </g>
  </g>
</svg>